<?xml version="1.0" standalone="no"?>
<!DOCTYPE svg PUBLIC "-//W3C//DTD SVG 20010904//EN"
 "http://www.w3.org/TR/2001/REC-SVG-20010904/DTD/svg10.dtd">
<svg version="1.0" xmlns="http://www.w3.org/2000/svg"
 width="96.000000pt" height="96.000000pt" viewBox="0 0 96.000000 96.000000"
 preserveAspectRatio="xMidYMid meet">
<metadata>
Created by potrace 1.16, written by Peter Selinger 2001-2019
</metadata>
<g transform="translate(0.000000,96.000000) scale(0.100000,-0.100000)"
fill="#000000" stroke="none">
<path d="M406 879 c-111 -27 -228 -125 -283 -237 -26 -52 -28 -66 -28 -172 0
-107 2 -119 29 -175 36 -72 123 -163 188 -194 180 -86 433 -22 537 136 137
206 71 524 -127 620 -50 24 -71 27 -167 30 -60 1 -127 -2 -149 -8z m260 -35
c100 -27 175 -108 209 -228 26 -88 17 -222 -19 -303 -65 -145 -227 -234 -399
-220 -128 11 -244 92 -303 212 -23 48 -30 76 -32 142 -5 102 14 170 68 245
105 148 284 205 476 152z"/>
<path d="M455 816 c-114 -36 -213 -111 -260 -197 -27 -50 -30 -62 -30 -154 0
-90 3 -105 28 -153 62 -117 156 -172 297 -172 190 0 324 117 361 316 38 205
-99 376 -300 373 -31 0 -74 -6 -96 -13z m214 -33 c79 -32 140 -109 156 -195 7
-37 7 -38 -24 -38 -20 0 -34 -7 -41 -21 -14 -25 0 -46 40 -57 l27 -7 -13 -55
c-29 -115 -131 -216 -238 -238 l-41 -8 -3 39 c-4 43 -21 55 -58 39 -19 -9 -24
-19 -24 -46 l0 -34 -41 9 c-126 29 -219 139 -219 260 0 34 3 38 28 41 24 3 27
7 27 38 0 29 -4 36 -23 38 -12 2 -22 8 -22 14 0 50 102 157 192 202 l53 27 3
-31 c3 -29 6 -31 40 -28 34 3 38 6 46 41 l10 38 45 -7 c25 -4 62 -13 80 -21z"/>
<path d="M645 616 c-22 -7 -79 -21 -127 -31 -73 -15 -91 -23 -105 -44 -9 -14
-45 -59 -80 -98 -35 -40 -63 -77 -63 -83 0 -15 23 -13 162 16 l127 27 91 108
c49 60 90 111 90 114 0 9 -53 4 -95 -9z"/>
</g>
</svg>
