<svg id="Capa_1" enable-background="new 0 0 512 512" height="512" viewBox="0 0 512 512" width="512" xmlns="http://www.w3.org/2000/svg"><g><g><path clip-rule="evenodd" d="m425.025 466.372 13.498 34.413h42.796c12.741 0 23.18-10.416 23.18-23.129v-25.705c0-12.712-10.44-23.129-23.18-23.129h-42.796z" fill="#fe636e" fill-rule="evenodd"/></g><g><path clip-rule="evenodd" d="m92.139 428.655-6.567 19.209 6.567 30.913 190.297 18.341 156.088-18.341v-49.953h-336.956c-3.957-.001-6.932-.113-9.429-.169z" fill="#fdb440" fill-rule="evenodd"/></g><g><path clip-rule="evenodd" d="m114.73 68.004h374.813c0 276.76.281 252.456.281 285.777 0 19.405-15.884 35.253-35.332 35.253h-37.324l-404.279.028c-2.975 0-5.388-2.436-5.388-5.404v-310.25c0-2.968 2.442-5.404 5.388-5.404h39.597z" fill="#e8eaea" fill-rule="evenodd"/></g><g><path clip-rule="evenodd" d="m416.213 313.319v-270.824c0-2.828 2.357-5.18 5.22-5.18h33.059c19.42 0 35.332 15.876 35.332 35.281v281.184c0-19.405-15.884-35.253-35.332-35.253h-33.059c-2.863 0-5.22-2.352-5.22-5.208z" fill="#ade194" fill-rule="evenodd"/></g><g><path clip-rule="evenodd" d="m438.523 478.776v22.009h42.796c12.741 0 23.18-10.416 23.18-23.129v-11.732c0-1.764-.196-3.5-.589-5.124-2.357 10.248-11.59 17.977-22.591 17.977h-42.796z" fill="#f93e55" fill-rule="evenodd"/></g><g><path clip-rule="evenodd" d="m92.139 478.776-8.335.084 8.335 22.065c2.498-.028 5.472-.14 9.429-.14h336.955v-22.009z" fill="#fe9737" fill-rule="evenodd"/></g><g><path clip-rule="evenodd" d="m51.054 442.823-6.763 21.981 6.763 21.953 21.917 9.8c9.345 4.172 12.516 4.508 19.167 4.368v-36.121-36.149c-6.651-.112-9.822.224-19.167 4.396z" fill="#ffe5c1" fill-rule="evenodd"/></g><g><path clip-rule="evenodd" d="m9.913 468.388 41.141 18.369v-43.933l-41.141 18.368c-3.227 1.428-3.115 5.824 0 7.196z" fill="#737a93" fill-rule="evenodd"/></g><g><path clip-rule="evenodd" d="m9.913 468.388 41.141 18.369v-22.149l-5.893-2.632-18.494-8.26-16.754 7.476c-3.227 1.428-3.115 5.824 0 7.196z" fill="#606b82" fill-rule="evenodd"/></g><g><path clip-rule="evenodd" d="m51.054 464.608v22.149l21.917 9.8c9.345 4.172 12.516 4.508 19.167 4.368v-22.149c-.73 0-1.403.028-2.049.028-5.36-.028-8.784-.672-17.119-4.424z" fill="#fed1a3" fill-rule="evenodd"/></g><g><path clip-rule="evenodd" d="m456.764 72.596v245.987c18.381 1.176 33.059 16.549 33.059 35.197v-281.184c0-1.568-.084-3.08-.281-4.592-2.273-17.249-17.175-30.689-35.051-30.689h-33.059c17.876 0 32.778 13.44 35.023 30.689.197 1.512.309 3.024.309 4.592z" fill="#80d261" fill-rule="evenodd"/></g><g><path clip-rule="evenodd" d="m307.047 389.033h110.12 37.324c19.448 0 35.332-15.848 35.332-35.253 0-18.649-14.677-34.021-33.059-35.197-.758-.056-1.515-.056-2.273-.056h-33.059c-2.862 0-5.22-2.352-5.22-5.208v-245.315h-84.891c18.55 40.965 29.158 88.343 29.158 138.8 0 32.845-4.49 64.402-12.741 93.691l23.545 23.521c3.648 3.64 1.01 7.056-2.947 7.056h-30.896c-8.223 20.944-18.466 40.377-30.393 57.961z" fill="#d4d6d8" fill-rule="evenodd"/></g><g><path clip-rule="evenodd" d="m52.485 326.228v-258.224-52.11c-.028-3.92 3.424-6.58 7.072-2.94l55.172 55.05 256.554 256.012c3.648 3.64 1.01 7.056-2.947 7.056-103.666 0-207.331 0-310.997 0-2.721 0-4.854-2.128-4.854-4.844zm71.983-64.738h83.095c5.893 0 5.079-.896 1.459-4.508l-82.281-82.099c-3.62-3.64-4.518-4.452-4.518 1.428v82.939c0 1.763.477 2.24 2.245 2.24z" fill="#6bd9e7" fill-rule="evenodd"/></g><g><path clip-rule="evenodd" d="m122.223 259.249v-82.939c0-5.88.898-5.068 4.518-1.428l82.281 82.099c3.62 3.612 4.434 4.508-1.459 4.508h-83.095c-1.768.001-2.245-.476-2.245-2.24z" fill="#e8eaea" fill-rule="evenodd"/></g><g><path clip-rule="evenodd" d="m63.206 68.004 263.654 263.068h41.477c3.957 0 6.595-3.416 2.947-7.056l-256.554-256.012-55.172-55.05c-3.648-3.64-7.1-.98-7.072 2.94v41.413z" fill="#00c7dd" fill-rule="evenodd"/></g><g><path d="m481.319 421.323s-389.33-.159-389.406-.157c-7.662-.101-11.8.481-21.998 5.036l-63.037 28.131c-4.225 1.87-6.848 5.874-6.844 10.449.004 4.527 2.695 8.637 6.814 10.451 20.674 9.254 63.064 28.171 63.064 28.171 9.544 4.262 13.681 4.739 20.462 4.739l152.604.141c4.142 0 7.5-3.358 7.5-7.5s-3.358-7.5-7.5-7.5c0 0-142.722.004-143.34.009v-20.99h331.385v20.981h-150.804c-4.143 0-7.5 3.358-7.5 7.5s3.357 7.5 7.5 7.5h201.101c16.917 0 30.681-13.74 30.681-30.628v-25.705c-.001-16.888-13.765-30.628-30.682-30.628zm-437.765 33.069v20.813c-7.77-3.47-15.532-6.932-23.31-10.411zm15 27.512v-34.206s23.852-10.495 26.084-11.008v56.228c-2.232-.513-20.609-8.57-26.084-11.014zm41.085-24.6v-20.99c.618.005 1.254.009 1.929.009h329.456v20.981zm397.361 20.352c0 8.618-7.034 15.628-15.681 15.628h-35.296v-56.962h35.296c8.646 0 15.681 7.011 15.681 15.628z"/><path d="m12.889 396.562 228.996-.028c4.142 0 7.5-3.359 7.499-7.501s-3.359-7.5-7.501-7.499l-226.883.027v-306.058h29.985v250.724c0 6.807 5.542 12.344 12.355 12.344h310.997c5.14 0 9.608-2.775 11.385-7.069 1.771-4.283.598-9.066-3.14-12.796l-243.723-243.203h275.854v237.816c0 7.007 5.706 12.708 12.72 12.708h33.059c15.347 0 27.832 12.45 27.832 27.753s-12.485 27.753-27.832 27.753h-178.175c-4.143 0-7.5 3.358-7.5 7.5s3.357 7.5 7.5 7.5h178.174c23.617 0 42.832-19.179 42.832-42.753v-281.184c0-23.59-19.215-42.781-42.832-42.781h-33.059c-7.014 0-12.72 5.688-12.72 12.68v18.009h-290.886l-52.971-52.859c-3.748-3.74-8.551-4.897-12.85-3.097-4.3 1.802-7.056 6.276-7.02 11.346v44.609h-32.097c-7.106 0-12.888 5.789-12.888 12.905v310.25c0 7.114 5.782 12.904 12.889 12.904zm410.824-351.748h30.778c15.347 0 27.832 12.462 27.832 27.781v248.712c-7.491-6.407-17.217-10.281-27.832-10.281h-30.778zm-363.728-20.837 300.232 299.595h-64.305v-10.533c0-4.142-3.357-7.5-7.5-7.5s-7.5 3.358-7.5 7.5v10.533h-32.174v-20.445c0-4.142-3.358-7.5-7.5-7.5s-7.5 3.358-7.5 7.5v20.445h-32.203v-10.533c0-4.142-3.358-7.5-7.5-7.5s-7.5 3.358-7.5 7.5v10.533h-32.174v-20.445c0-4.142-3.358-7.5-7.5-7.5s-7.5 3.358-7.5 7.5v20.445h-32.201v-10.533c0-4.142-3.358-7.5-7.5-7.5s-7.5 3.358-7.5 7.5v10.533h-32.175z"/><path d="m124.468 268.99h83.095c3.131 0 8.96 0 11.192-5.395 2.195-5.307-1.637-9.13-4.436-11.922l-82.261-82.078c-2.794-2.81-6.622-6.657-11.936-4.465-5.4 2.229-5.4 8.053-5.4 11.182v82.938c.001 5.917 3.826 9.74 9.746 9.74zm5.255-80.537 65.683 65.537h-65.683z"/></g></g></svg>