<svg xmlns="http://www.w3.org/2000/svg" preserveAspectRatio="xMinYMin meet" viewBox="0 0 256 329">
  <defs/>
  <path d="M76.5 203.4c-9.7-7.7-20.2-15-27.3-25.4A206 206 0 0115 116.3C10 102 8.5 86.4 2.4 72.5c-6.5-10 1-21.1 12.1-24.3 5-1 13.6-5.6 3.1-2.3-9.3 6.9-10.2-6.2-.6-7 6.5-1 9-6.3 6.7-11.1-7-4.6 17-9.6 5-16.5C16-2.3 46.2-4.9 38.7 10.6 37 22.5 60 8.4 54.7 22 60 28.7 74.9 23.6 74.6 33c7.8.5 10.5 7.1 18 7.7 7.6 3.4 21.5 6.1 24.1 14.8-7.6 6-25.2-12.5-26 4.2 2.3 24.7 1.7 50 10.7 73.5 4.2 14.2 14.6 25.4 24 36.5 8.8 10.8 21 18.4 33.3 24.8 10.8 5.1 22.4 8.5 34.2 10.6 4.8-3.6 13.3-17.2 20.7-11.5.4 6.5-14.8 13.5-.7 12.8 8.3-2.5 14 6.4 20.8-1.6 6.3 7.4 26.1-4.8 21.7 10.4-6 3.9-14.9 1.5-21 7-10-5-17.9 4.4-28.9 3.2-12.3 2.2-24.7 3-37.2 3-20.4-1.5-41.2-2.2-60.6-9.3-11-3.2-21.6-9.4-31.2-15.6zm17.2 7.4c10.7 4.6 21.1 9.5 32.8 11 18.6 2.5 37.8 6.5 56.4 2.9-8.4-3.8-17.2 1.5-25.6-2.7-10 2.1-20.8-.6-31-2-11.7-5.1-24.3-8.7-35.2-15.4-13.6-5 7 6.4 10.7 7.3 8.5 4.8-9.3-2.5-11.9-4.5-7-4-8-3.2-.7 1l4.5 2.4zm-20.3-14.3c10.4 3.8 0-7.3-4.8-6.7-2-3.6-8-6-3.8-7.9-7.5 2.6-7.9-9.9-11.4-8-8-2.6-3.1-11.5-12.6-17-.8-5.7-9.4-10.7-12.1-19.4-1.2-4.4-9.7-17.2-4.5-5.3 4.4 11.4 12.2 21.2 18.7 31 5 9.3 11 19 20.1 24.8 3 3 6 7.5 10.4 8.5zm-29.8-32.7c.4-1.6 2 3.3 0 0zM85.8 201c2.3-1-3.3-1.3 0 0zm5.6 2c-.6-2.8-2.5 1.6 0 0zm7 3c3.4-3.3-5.1-2 0 0zm12 6.6c2.1-3-6.4-1 0 0zm-23-16c5.2-3.4-6.8-.1 0 0zm5.2 2.6c-.1-1.8-1.8.7 0 0zm26.4 16.4c4.2 2.7 24.7 5.9 11.9 1.1-2.2.4-23.8-6.1-12-1.1zm-41.8-32.6c-.5-1.8-6.6-2 0 0zm12.2 7.2c3.2-2.3-6.6-1.7 0 0zm10.3 6.3c4.6-1.7-7.4-1.7 0 0zm-27.5-19c5 3.9 20 .6 7.6-2.2-5.7-3-18.4-5-9.7 1.8l2 .5zm34.5 21.2c2.1-3.5-8.7-2 0 0zm-10.5-8.4c12.2 3.5-10.2-7.7-3-1.2l1.6.7 1.4.5zm21 12.2c11.6.1-10.3-1.6 0 0zM67.8 171c-.4-2.1-2.8.2 0 0zm69 42.5c.4-3.8-3.7 3 0 0zm-49.3-30.4c-.7-2-3.6-.1 0 0zm-18.6-13.4c6.6-.4-9-3 0 0zm-22-14.2c-.8-3.2-7.1-5.7 0 0zm57.7 36.6c-1.2-1.4-.5.3 0 0zm36 22c-.2-2-2 .8 0 0zm-39.1-25.3c.6-2.7-5.7-.8 0 0zm-26.8-17c5-.5-7.9-3.3 0 0zM120 200c7.6-3-7.5-1.5 0 0zm-23.6-16c8.9 1.1-10.5-6-2-.6l2 .6zm30.7 18.9c8.3-5 5.5 11.5 14 1.4 8.3-6.1-7.2 7.5 3 1 7.5-5 18.5 2.4 25.4 4.8 5-.3 9.9 4.3 15 1.5 9.8-2.6-19.3-4-11.6-8.6-9 2.6-15.7-3.1-20.1-9-10.1-2.2-21.8-7.4-26.9-16.4-2-3.3 3 .5-1.8-5-6-5.4-9-11.5-13.2-18.1-4.9-2.6-5.4-10.3-6-.3.1-6.3-5.8-10.6-7.3-8.8 0-6 6.4-3 2-7.5-1-6.3-4.2-13-5.2-20-1.4-3.5-.2-10.8-5-3-1.8 8.2-.6-10.2 2.2-4.1 3.5-6.2-1.3-5.5-1.5-4.6 2.3-5.2 1.4-12.6-.7-9.8 1.3-5.5 2-20.3-1.8-17.6 2.3-5.8 4.4-26.4-5.7-18.6a43 43 0 00-14.5 3.2c10.5 5.8-1.1 2-5.4 1.2-.5 5.3-4.8 3-10 3 8.4 1.1-4.2 8.7-9 5.8-6.4 3 5.4 10.5 0 12.8.7 3.5-9.6-1.2-8.8 6.8-6-2.5-.8 9.6 2.3 5.5 10.4 2.8 7.3 9.3 7.5 15.4-1.7 3.5-8.3-8.4-1.4-7.8-5.5-8.9-6-3.2-10.6.9-1 .3 11.5 5.8 3.7 8.5 6.9 1.1 7.1 7.2 8.5 11 4.2 4.4 3.3-4.8 8.3.4-3.2-4.6-16.7-13-5.8-10.4 0-4.6-2-8.4 1.4-8.3 3.3-6-3.5 14.8 4 7.2 2-1 2.6-6 6.3.4 5.4 5.4 2 9.2-5.7 4.3 1.4 4.7 10.2 6.3 8.5 13.5 1.8 6.4 4.2 4 6.4 3.7 1.7 6.1 2.6 1.6 2.7-1.3 7.7 1.6 5.9 6.2 8.3 9.3 5.3 2.4-7.6-16.2 1.5-5.6 9.6 8.7 3.6 12.3-5 11 5.5-.5 7.2 7.3 14 7 6.2 3 10.4 14.3-.3 9.6-3.7-3.4-16.8-7.5-6-1.1 9.8 4.6 17.7 7.3 27.2 13 6.9 5 9.8 10.5 12.4 11.6-5.7 2.8-17.3-2.2-8.7-3.7-5.4-1-11.4-3.7-6.3 3 4.4 3.7 15.5 3.3 17.5 3.7-1.7 3.7-4.6 4 0 4.3-5.1 2.8 1.7 3.2 2.2 4.8zm-10.6-30c-3.2-3.3-4-9.5-.6-4.1 1.8.7 5.6 10.1.6 4.1zm34.6 22c2-.2 0 1.4 0 0zm-39.6-30c-.1-5 1.2 3.8 0 0zm-3.4-4.7c-4-7.7 5 2.2 0 0zm-41.6-28.7c2.3-.6 1.1 4 0 0zm33 18c1.5-5.5 1.8 4.4 0 0zm-23.3-16.3c-1.6-3 3.4 2.7 0 0zm20 6.4c-3.7-8.4 2.7-4.6 1 1.4l-1-1.4zm-34.6-23.1c-1.6-2.8-4.4-10.9-3.5-13.4.8 4 8.6 17.4 3.8 5.6-5.3-10 6.3 3.2 7.5 5.7.5 2.4-3.3-.7-.7 5-4.7-6.5-2.8 3.7-7-2.9zM51 109.1c.4-6.4 2.4 4.4 0 0zm4.8 1.7c2.3-4.9 3.9 6.7 0 0zm-11.6-9c-4-4-6.9-7.6.2-2.4 2.7 0-6-8.3.6-2.7 7 1.3 3.5 11.5-.8 5.1zm6-.1c2.4-2.3 1.3 2.2 0 0zm3.8 1.2c-3.5-6.6 4.3 2.7 0 0zm-7.4-7.1C34.9 85.4 61 101 48.4 97.7l-2-2zM79.7 115c-5-3-1.4-21.1.3-8.7 5-1.6-.2 6.4 3.4 6.3-.6 5-2.2 6.9-3.7 2.4zm12.2 7.3c.5-5.5 1 3.7 0 0zm-2.1-2.1c.5-2.4 0 2.7 0 0zm-41-27.8C41.2 82 70.3 102.8 53.4 95c-1.8-.5-3.9-.7-4.8-2.6zm23.6 12.5c-.7-8.6 1.5 1.4 0 0zm18 11.5c1.3-5 0 3.3 0 0zm-40.5-28c4.4-.9 18.3 7.8 5.5 2.5-1.4-1.5-4.4-.8-5.5-2.4zm38 19c.4-8.9 2.6-5.3 0 1.2v-1.2zm-34.7-22c1.8-2.7-4.8-12 1-3.4 2.4 2 7 3.3 3 4.2 6.5 5.7-1.6 1.5-4-.8zM86 104.6c1.2-10 1 6 0 0zM49.4 76.1c1.4-.6.7 1.8 0 0zm8.6 5c2.2-4.6 4 5.2 0 0zM82 94.7c0-1.8.5 2.6 0 0zm-1.4-3.1c-3.3-8.3 3.1 4.4 0 0zm-2-5.4c-.6-3.4 1.9 4.3 0 0zm3.3-5.5c-2.3-4 2.9-17.8 3.5-9.3-2.4 6.7-.7 10.4 1 1.5 3-7-.7 13.9-4.5 7.8zm3.4-20.5c1-1.2.3 1.5 0 0zm-5.7 113.2c-1.4-1.2.2.8 0 0zm11.8 6c6.6 1.7 6.6-1 .6-1.8-3.2-3-13.3-6.2-4.2-.4.6 1.5 2.5 1.5 3.6 2.2zm-23.3-15.5c3.6 2.7 13.6 7.6 5.1 1 2.9-3.3-5.5-5-2.7-7.3-7-4.3-5.6-4-.6-3.8-8.5-3.8 1.2-3.5.7-5.4-3.2-.7-16.2-5.8-8.5.4-7.8-4-1.9 1.5-4.2.9-8-2.2 7 6-1.3 4 4.6 3.6 12.2 9.2 2 3.8-1.4 2 7.3 4.9 9.5 6.4zm12.3 7.1c15 4.8-7.4-6 0 0zm63.4 38.4c.2-3-2 2.5 0 0zm6.5 2.7c3.5-3.3.1 5.4 5.8-.8 0-4.4-.2-7-6.5-1.7-1.7 1-2.5 5 .7 2.5zM47 147.1c-1-4.2-7.5-4.2 0 0zm7 4.6c-2.6-4.3-9.2-4 0 0zm39.5 23.8c4 3.4 17.8 2.5 4.7.4-1.9-2.8-12.2-2.1-4.7-.4zm54.4 33.6c6-5-5.7 2.2 0 0zm12.4 8.5c0-1.6-2.6.7 0 0zm0-2.2c6.6-7-6.4.4 0 0zM30 132.8c-5.6-8-3.5-11.6-8.9-18.2-1-5-9.3-16.3-4.3-4.3 4.6 7 6 18 13.2 22.5zM158.2 213c12.2-7.8-5-3.4 0 0zm9.3 3.7c6-5.2-3.8-1.1 0 0zM45 138.2c1.7-2.5-4.5-.3 0 0zm120.6 76c5.8-3.7-1.4-3.1-1.1.4l1-.3zm-79.7-50.1c-.2-2.6-3.1.2 0 0zm4.9 2.8c-1.6-3.2-2.4.5 0 0zm84.2 50c7.5-5.5-4.6-1-1.6 1l1.6-1zm-2.9-1.4c6.1-5.2-6.5 2.2 0 0zm14.7 9.8c4.1-2.8-5-1 0 0zm-138-89c5.4 1.3 22 13.7 12.2 1-5-1.5-2-13.7-7-11.6 3.4 5.7 2.7 8.2-4.4 4.6-9-4.4-5.1 2.1-3.3 4-2.4.5 3.1 2 2.4 2zm-25.2-19.8c1-4-9-22.4-4.8-9.2 1.6 2.8 1.4 8 4.8 9.2zM69.7 145c-2.8-2.4-.1-.4 0 0zm7 1.6c0-4.3-7.7-1.8 0 0zm60.6 38.2c-1.1-3-4.5 0 0 0zm3 2.1c-.5-1.6-1.7.4 0 0zm24 15.2c2.3-1.7-3-.2 0 0zM36.2 119.7c6.6-2.5-7.1-1.8 0 0zm95.8 60.4c0-4.3-4.2 1 0 0zm-98.5-66.4c4.3-1.5-3.9-1 0 0zm12.4 6c-.1-1.5-1.3.5 0 0zm150.3 92c5.4-1 17.9 2.9 19.9-1.4-6.7-.1-23-4.6-23.7 1.1l1.4.3h2.4zm-146.4-91c0-4.4-3.4-.3 0 0zM17.4 98c-1.5-8.2-5.6-1.2 0 0zm7.7 2c.1-2.7-7-2.4 0 0zm4.4 2.2c-1.2-1-1 1.3 0 0zM57.3 120c1.3-1.2-3-1 0 0zM26.6 97.4c-.8-6.3-9-1 0 0zM10.7 87c-.2-2.9-1.5 1 0 0zm2.4-1.8c-.4-3.4-2 .4 0 0zm13 7.8c5.5-2.2-10-4.5-1.1-.4l1.1.4zm174.2 107.6c3.6-3.2-4.4-1 0 0zm21 10.9c1.5-4.2-3.5.5 0 0zM27.5 86.3c.6-4-4.3.8 0 0zM9 73.8c-1-5.7-.8-15.7 8.7-12.3-12.7 2.5 8.8 15.8 6 5.3 5.4.3 10.5-3.1 7.7 2 10.5-1.1 17.8-10.2 28-9 8-1 16.6-1.8 25.1-5 7-.5 13.8-8 10-12.5-9.6-.8-19.7.4-30.2 2.5-11.7 2.4-22.4 7-34.2 9-11.5 1.6 2.3 4.3-1 4.9-6 2 7.2 3.5-.8 5.7-4.9-1-10-2.6-7.9-7.8-11 1.4-20.7 6-12 17.2h.6zm26.6-13.5c2.6-9.5 13.9 7.8 4.3 1.3-1.2-.9-3-1.6-4.3-1.3zm.5-4.6c3.8-2.8 2 1.5 0 0zm4.8 0c.3-4.3 10.8 2.4 1.7 1.6l-1.7-1.6zm6.5-2.6c2.3-2.7.7 2.5 0 0zm1.6-1c4-4.8 22.4-3.1 9-.5-3.7-2.8-6.5 1.6-9 .4zm24-3.8c-.6-13 12 4.6 0 0zm6.9 0c2.4-6.5 9.6-2.6 1.1-1.3.2.7-.2 3.3-1.1 1.3zm-55 34.6c7.4-4.6-8-4 0 0zm5.5 1.5c2.6-2.7-5.7-1.1 0 0zM14 73c4.2-3.2-5-1.2 0 0zm219.7 137.5c.1-3.8-3.2 1.7 0 0zm-22.3-15.2c.6-4.4-2.9.3 0 0zm28.5 16.7c5.9 0 18-1.9 5-1.9-2 .3-11.8.3-5 1.9zM35 81.7c4.8-.3 7.5-5.3-1-5-13-1.3 11.6 4.5-1.6 2.8-1.8 1.2 2.5 2.6 2.6 2.2zm4.2 2.2c-.5-3-1.4 1.6 0 0zm5-13.4c2.2-2.6-2.8-.7 0 0zm-16-26.8c8.7-2.9 20.4-6.2 24.5 1.5-4.2-5-1.7-9.9 2.2-2.6 5.5 7.3 8.3-3.4 4.7-5.8 4 5 8.7 7.5 2.7.3 6.5-7.8-13 1-17.5 1-2.1.9-22 5-16.5 5.6zm5.1-9.6c4.9-3.7 17 2.2 9.2-3.7-.7-.6-17 4.5-9.2 3.7zm17.9.7c5.7.2-2.5-7.7 4.3-4.1-1.1-3.7-8-4.4-11.3-5.8-1.9 3.3 3.9 10 7 10zM36.5 18.6c2-2.7-3.4 1.4 0 0zm7.3 1.8c9.3-1.2-2.3-4-1.8-.1h1.8zM30.2 9.7c-6.5-8.5 12.2 1.4 5.6-7.5-5.5-4.4-10.9 5-5.6 7.5zm83.5 45c3-5.3-12.3-7.2-2-1.9 1 .3.7 2.2 2 1.9zM53 251.5c-.7 2.6-1 7-1.2 13.1 0 1.2-.6 1.8-1.6 1.8s-1.9-.5-2.3-1.6a20.6 20.6 0 00-3.3-5.9 8 8 0 00-5-2.4 149 149 0 00-16.6-.5c-2 0-3.3.2-4 .6-.3.3-.5.9-.5 1.8v26.4c0 .9.6 1.3 1.7 1.3 3.4 0 8.5-.3 15-.7 1.3-.2 2.2-.6 2.6-1.3.5-.7 1-2.4 1.3-5.3.3-1.5 1.2-2.1 2.8-1.8 1.3.3 1.9 1 1.7 1.8a86 86 0 00-1 20.7c0 1-.7 1.5-2 1.6-1.1.1-1.8-.5-2-1.7-1-4.9-3-7.5-5.7-7.8-2.7-.4-7.2-.5-13.4-.5-.7 0-1 .2-1 .7v26.3c0 2 .7 3.2 2.2 4 1 .5 3.5 1 7.2 1.5 2 .2 2.8 1 2.5 2.5-.2 1.3-1.9 1.8-5 1.5a109 109 0 00-22.9.2c-1.7.2-2.5-.5-2.5-2 0-1.1.8-1.7 2.5-1.8 3.8-.5 5.7-3.8 5.7-10v-50c0-2.5-.4-4.5-1.3-5.9-1-1.4-2.7-2.6-5.1-3.7-1.6-.7-2.2-1.7-1.8-3 .2-.6.5-1 1-1.1a150.4 150.4 0 0020.4.8c10.7 0 20-.2 27.8-.7 2.6-.2 3.9 0 3.9.6v.5zm37.8 74c0 1.6-.9 2.2-2.6 2-5.4-.5-12-.4-20 .3-1.5.1-2.5 0-2.9-.1-.4-.3-.5-1-.5-2 0-.9 1-1.7 3.1-2.3 2.2-.7 3.2-2.6 3.2-5.8V265c0-3.2-.4-5.5-1.4-7a8.9 8.9 0 00-4.8-3.4c-1.2-.4-1.8-1-1.8-1.8 0-1.2.9-2 2.6-2.6 2.7-.9 5.4-2.2 8.3-4 2.3-1.4 3.8-2.1 4.4-2.1 1.4 0 2.2 1 2.2 3l-.3 5.8v11.4l.1 52c0 2.4.6 4.1 1.8 5.2 1.2 1 3.2 1.8 6 2.1 1.7.2 2.6.9 2.6 2zm52.7-3.4c0 .8-1.4 2-4.4 3.7a16 16 0 01-7.2 2.4c-1.5 0-2.8-.7-4-2.2-1.1-1.4-2-2.2-2.4-2.2-.4 0-2.2.8-5.6 2.4a23.2 23.2 0 01-10 2.4c-3.2 0-5.9-1-8-2.8-2.4-2-3.5-4.9-3.5-8.4 0-6.7 7.7-11.5 23-14.5 2.7-.5 4-1.5 4-3.2l.2-3.7c.2-6.4-2.6-9.6-8.5-9.6-1.6 0-3.2 1.5-4.7 4.5s-3.7 4.6-6.5 4.9c-3.1.3-4.7-1-4.7-4 0-2 2.3-4 7-6.6 5-2.6 9.8-3.9 14.4-3.9 7.9 0 11.8 3.8 11.7 11.3l-.2 24c0 2.5 1 3.8 3.2 3.8l2.5-.3 2-.3c1.2 0 1.7.7 1.7 2.3zm-18-13.3c.1-1-.1-1.6-.6-2-.5-.3-1.2-.3-2.3-.1-9.4 1.6-14 4.7-14 9.1 0 4.5 2.4 6.7 7.3 6.7 1.9 0 3.9-.3 6-1 2.4-1 3.6-2 3.6-3.2v-9.5zm61.4 6.6c0 4-1.6 7.4-4.8 9.8a20.8 20.8 0 01-13 3.6c-3.6 0-7.2-.4-10.9-1.1-3.1-.7-5-1.4-5.5-2-.3-.5-.4-3.2-.4-8 0-2 .4-3 1.4-3.2.9 0 1.7.4 2.3 1.6 3 5 7.7 7.6 14.2 7.6 5.4 0 8.2-2 8.2-5.7 0-1.7-.6-3-1.9-4.2a30 30 0 00-8-4.5 40.7 40.7 0 01-11.3-6.7c-2-2-3-4.7-3-8.1 0-4.2 1.5-7.5 4.8-9.8 3-2.3 7-3.4 12-3.4 3.1 0 6 .3 8.6.8 2.8.5 4.3 1.1 4.4 1.8.3 2.2 1 5.4 1.9 9.5.1.5-.4.9-1.6 1.2-1.3.3-2.2 0-2.6-.6-3-5-7-7.6-11.7-7.6-5.3 0-8 1.8-8 5.2 0 1.9.8 3.4 2.2 4.5 1.3 1 4.3 2.5 9 4.6 5 2.1 8.4 4 10.2 5.7 2.3 2.3 3.5 5.2 3.5 9zm68.6 10.2c0 1.3-1 2-2.8 2.1-2.7 0-6.2.3-10.6.6-2.2.4-3.8.2-4.7-.8a120.9 120.9 0 01-15.6-20.8c-.4-.6-.8-.9-1.4-.9-.6 0-1.8.6-3.4 1.7-1.8 1-2.7 2.5-2.7 4.4v5.7c.2 2.5.8 4 2 4.9.8.5 2.6 1 5.6 1.3 1.8.2 2.7.9 2.7 2 0 .9-.1 1.4-.4 1.7a134.2 134.2 0 00-22 .7c-2.3.2-3.6-.1-3.8-.9l-.1-1.2c0-1.2 1.2-2 3.5-2.7 2.2-.5 3.2-3 3.2-7.5v-51c0-3.2-.3-5.4-.9-6.6-.8-1.6-2.6-2.9-5.4-3.7-1.2-.5-1.9-1-1.9-1.9 0-1 1-2 2.8-2.6a36.6 36.6 0 008.3-4c2.1-1.4 3.5-2.1 4-2.1 1.6 0 2.4 1 2.4 3l-.1 5.8a935.4 935.4 0 000 11.4v36.5c0 1 .3 1.5.9 1.5.6 0 1.4-.5 2.7-1.5a317 317 0 0011.8-9.9c1-1 1.4-1.7 1.4-2.3 0-1-1.5-1.8-4.7-2.2-1.3-.2-2-1-1.9-2.3.1-1.4.8-2 2-1.8 2.8.4 7 .6 12.3.7h11.1c1.2 0 1.8.8 1.8 2.2 0 1.3-1 2-2.8 2.2-3 0-5.8.8-8.5 2a41.9 41.9 0 00-11.8 8.8 1 1 0 00-.5.9 82.9 82.9 0 0015.7 20.6c2.8 2.4 5.4 3.6 7.8 3.6 1.8 0 2.9.1 3.3.4.5.2.7.9.7 2z"/>
</svg>
