<svg height="512" viewBox="0 0 512 512" width="512" xmlns="http://www.w3.org/2000/svg"><g id="flat"><path d="m24 168v-102.111a9.888 9.888 0 0 1 9.889-9.889h200a9.888 9.888 0 0 0 8.844-5.466l10.534-21.068a9.888 9.888 0 0 1 8.844-5.466h187.778a9.888 9.888 0 0 1 8.844 5.466l10.534 21.068a9.888 9.888 0 0 0 8.844 5.466 9.888 9.888 0 0 1 9.889 9.889v102.111z" fill="#faaa31"/><path d="m56 88h384v128h-384z" fill="#ccc"/><path d="m56 120h400v128h-400z" fill="#e6e6e6"/><path d="m24 392v-230.111a9.888 9.888 0 0 1 9.889-9.889 9.888 9.888 0 0 0 8.844-5.466l10.534-21.068a9.888 9.888 0 0 1 8.844-5.466h203.778a9.888 9.888 0 0 1 8.844 5.466l10.534 21.068a9.888 9.888 0 0 0 8.844 5.466h184a9.888 9.888 0 0 1 9.889 9.889v230.111z" fill="#ffc841"/><path d="m76 368q-26.319 0-52-2.519v26.519h464v-219.417c-97.56 119.277-245.885 195.417-412 195.417z" fill="#f2b630"/><path d="m256 176-48 32h96z" fill="#8c6239"/><g fill="#603813"><path d="m216 208h16v48h-16z"/><path d="m248 208h16v48h-16z"/><path d="m280 208h16v48h-16z"/></g><path d="m312 376v-56a64 64 0 0 1 64-64 64 64 0 0 1 64 64v56h-32v-56a32 32 0 0 0 -32-32 32 32 0 0 0 -32 32v56z" fill="#999"/><path d="m296 368v88a32 32 0 0 0 32 32h96a32 32 0 0 0 32-32v-88a16 16 0 0 0 -16-16h-128a16 16 0 0 0 -16 16z" fill="#d5494c"/><path d="m400 408a24 24 0 1 0 -40 17.884v14.116a16 16 0 0 0 32 0v-14.116a23.936 23.936 0 0 0 8-17.884z" fill="#606060"/><path d="m200 248h112v16h-112z" fill="#82542e"/><path d="m376 448v-14.116a24 24 0 0 1 16-41.884c.66 0 1.312.034 1.959.086a24 24 0 1 0 -33.959 33.798v14.116a16 16 0 0 0 16 16 16.208 16.208 0 0 0 2.068-.148 15.914 15.914 0 0 1 -2.068-7.852z" fill="#4d4d4d"/></g></svg>