<svg xmlns="http://www.w3.org/2000/svg" viewBox="0 0 1478.2 1195.1"><defs/><g transform="matrix(.569 0 0 .569 199.5 -82.7)"><linearGradient id="a" x1="-2902" x2="-2061.2" y1="923.6" y2="1420.3" gradientTransform="matrix(.1234 0 0 -.1234 1158.3 1550.3)" gradientUnits="userSpaceOnUse"><stop offset="0" stop-color="#909ca9"/><stop offset="1" stop-color="#ededee"/></linearGradient><path fill="url(#a)" d="M1410.8 814.2l-287 93.7L874.4 1018l-69.9 18.5a2018.7 2018.7 0 01-115.2 100.4 436.8 436.8 0 00-56.7 56.4c-19.8 24.7-35.4 51-42 71-12 36.5-6.2 73.4 16.8 107.4 29.5 43.4 88.3 87.6 156.8 117.8 35 15.4 93.7 35.1 138 46.2 73.4 18.6 215.7 38.8 294 41.8 15.8.7 37 .7 38 0 1.7-1 13.8-24.3 28-53.1 48-98.2 82.7-190.4 101.6-269.1 11.3-47.7 20.2-111.3 26-186.5 1.6-21 2.2-91.5.9-115.4-2-39-5.4-70.7-10.8-101.7-1-4.5-1.1-8.7-.7-8.9.9-.6 3.5-1.5 38.8-11.7l-7.1-16.9zm-65.5 38.4c2.6 0 9.5 66.6 11.3 108.6.4 9 .2 14.8-.3 14.8a916 916 0 01-61.5-36.2c-21.7-13.7-63-41-69.4-46.2-2.2-1.5-2-1.8 15.8-7.8a2973.3 2973.3 0 01104-33.2zM1199 900.7c2 0 7 2.8 18.9 10.2 44.7 28 105.4 61.8 131.4 73.1 8 3.5 8.9 2.2-9.5 14.7a945.2 945.2 0 01-149 80 452.5 452.5 0 01-19.8 8.5c-.4 0 1-5.4 2.6-12a639.4 639.4 0 0023.3-152.4c.2-21.6.2-21.6 2.1-22.3-.4.2-.2.2 0 .2zm-30.1 11.5c1.3 1.3.4 49.9-1.3 63.1a552 552 0 01-25 109.5c-.8 1.1-30.5-28-40.3-39.2-17-19.5-30.1-39-39.9-58.1-5-9.8-12.8-28.9-12.1-29.5 3.4-2.4 117.7-46.7 118.6-45.8zM1027.2 968c.2 0 .4 0 .6.3.4.4 2 3.9 3.3 7.8a293 293 0 0036 64.4 367 367 0 0060.7 63c1.3 1.4 1.7 1.2-33.6 14.6-41 15.6-85.7 31.2-136.9 47.7a6825.5 6825.5 0 00-36.6 12c-2 .6-1.3-.5 4.3-9.4 25.4-39.7 64-117.5 85.7-172.6 3.7-9.5 7.3-19 8-21.2.9-3 2-4.2 4.8-5.7 1.5-.4 3-.9 3.7-.9zm-43.4 18a485 485 0 01-21.3 45 1680 1680 0 01-85.6 147.4c-1.1 1.5-1.5 1-5-5.6a198.8 198.8 0 01-16.7-50.4c-3.3-16.9-2.6-46.4 1-64.6 2.9-13.4 2.7-13.2 9.2-16.5 27.7-14 117.5-56.1 118.4-55.3zm374 15.2v9.1a1179.7 1179.7 0 01-15.3 178.7l-13.7-3.9a559.6 559.6 0 01-99.8-42.7c-21-11.5-51.6-30.4-50.7-31.2l20-10.7c42.5-22 83.2-46 118.6-69.6a598.1 598.1 0 0037.5-27l3.5-2.7zm-537.7 64.2c.8 0 .6 1.7-.7 9.6-.9 5.6-2 16-2.4 23.2-1.7 31.6 3.5 55 19.1 87.1 4.3 9 7.8 16.3 7.6 16.5-1.5 1.3-145 43.4-190.2 55.7l-26 7.2c-1.5.4-1.7.2-1-3.5 4.9-31.8 29.2-73.5 63-108.6 22.6-23.4 40.6-37 71.4-54.7 22-12.5 56.1-31.4 58.7-32.3 0-.2.2-.2.5-.2zm338.3 60.5c.2-.2 5.4 2.6 11.7 6.3a653.3 653.3 0 00166 64.6l5 1.1-6.9 4c-28.8 16-123.6 55.4-220.5 91.6L1083 1305c-2.6 1.1-5 1.8-5 1.6 0-.3 4-7.9 8.9-17.2a1070 1070 0 0068.3-155.5c1.8-4 2.8-7.8 3-8zm-34.5 11.3c.2.2-1.5 4.8-3.7 10a1373.3 1373.3 0 01-75.3 151.6c-8 14.3-14.7 25.8-15 25.8l-14.5-8.7c-46-28.2-86.7-62.9-113.4-96.5l-3.9-4.8 19.8-5.4a1416 1416 0 00190.4-65.7l15.6-6.3zm214.2 74.8s.2.2 0 0c.2 5-10.8 49.7-20 82a2352.5 2352.5 0 01-36 116 906.4 906.4 0 01-179.1-50.3c-15.1-6-36.8-15.8-38.1-17a253 253 0 0129-13.6c98.7-43.1 201-92.2 236.2-113.2 4.1-2.6 7.4-3.9 8-3.9zm-494.6 17c.4.4-27.1 40-65.7 94l-35 49.3a867 867 0 00-19.7 29l-9 14.1-9.8-8.2c-11.5-9.6-31.5-30-40.4-41.2a178 178 0 01-36.2-70c-2.4-10.5-2.4-15.7-.2-16.3 3.2-.9 61.1-14.6 115.4-27.1a9618 9618 0 00100.6-23.7zm27.7 10.6l7 7.8c31.2 34.9 63 60.7 101.7 83.2a57 57 0 0111.7 7.6 13261.2 13261.2 0 01-258.5 91.3c-.2 0-2.2-1.3-4.3-2.8l-4-2.8 6.3-9.1c20.4-29.5 46-61.8 101.8-129l38.3-46.2zm173 123.8c.3-.2 9.8 3.2 21.6 7.6a694 694 0 0080.4 24.9 890.6 890.6 0 00121.7 21c4.7.5 7.3 1 6.5 1.6-1.6.8-33.4 11.5-56.8 18.8a15438.5 15438.5 0 01-276.8 81.3c-2.1.5-9.3-1.5-9.3-2.3 0-.5 5.2-7.2 11.5-14.6 31.2-37.3 62.3-79 88-118.4 7.2-10.8 13.3-19.7 13.3-20zm-38 1c.1.3-15.3 25-42.1 67.5l-28.9 45.5-14.5 23.9-6.3 11-3.3-.8c-7.8-2.2-62.6-21.5-77.2-27.3a537 537 0 01-50.5-23.2c-17.3-9.4-39-23.2-37.3-23.7l66-18c95-25.8 147.6-40.7 182-51.6 6.4-2 11.8-3.5 12-3.2zm269.9 63.4h.2c.9 2.1-34.2 99.7-47 130.5-2.9 7-4 8.7-5.5 8.5a3958 3958 0 01-253-41.2l-5.2-1.1 32.3-7.4c69.4-15.6 102.8-24 136.6-34.5 42.7-13 85-29.2 127.7-49.2 6.7-3 12.4-5.4 13.9-5.6z"/><linearGradient id="b" x1="-2882.7" x2="-2206.2" y1="10288.8" y2="10288.8" gradientTransform="matrix(.1234 0 0 -.1234 1158.3 1550.3)" gradientUnits="userSpaceOnUse"><stop offset="0" stop-color="#939fab"/><stop offset="1" stop-color="#dcdee1"/></linearGradient><path fill="url(#b)" d="M1115 145.4c-4.8-.6-81.8 27.1-131.4 47.3-67 27.3-119 53.3-151.2 75.9-12 8.4-26.9 23.4-29.3 29.3-.8 2.1-1.3 4.7-1.3 7.3l29.1 27.6 69.2 22.1 164.6 29.5 188.2 32.3 2-16.3-1.8-.2-24.7-3.9-5-8.9c-25.6-45-53.8-101-70.2-138.8a717.3 717.3 0 01-31.7-87.4c-3.7-14.7-4.1-15.6-6.5-15.8zm-3.5 11h.2c.2.3 1.1 6.4 2 13.5a453 453 0 0021 91.3c8 23.9 8 22.6-1.3 19.8-22.1-6.1-121.2-23.3-193-33.2-11.5-1.5-21.2-3-21.2-3.3-.9-.8 51.8-28.4 75-39.2 29.7-13.7 111.2-47.7 117.3-48.8zm-209 97.2l8.4 2.8c46 15.7 161.6 37.8 225.3 43l13.5 1.3c.2.2-5.9 3.5-13.7 7.1a1197.7 1197.7 0 00-88 48.8c-7 4.4-13.3 7.8-14.1 7.8-.9 0-5.4-.8-10.2-1.5l-8.7-1.3-21.7-21.2c-38.1-37.1-68-65.7-79.6-76.6l-11.2-10.2zm-8.7 6.7l30.6 38.2c16.7 21 33.6 41.7 37.3 46.2 3.7 4.6 6.7 8.2 6.5 8.5A950.6 950.6 0 01853 327.6l-11.9-4v-3c.2-14.5 18.6-36.2 49.9-58.3l2.8-2zm259.8 52c.9 0 2 2 4.5 7.9 7.4 16.3 30.4 60 36 68.5 1.8 2.8 4.8 3-25.8-2-73.5-11.9-97.1-15.8-97.1-16.2 0-.2 2.1-1.7 5-3.2a423.3 423.3 0 0066.1-45.8l10.4-8.7c.2-.4.7-.6.9-.4z"/><radialGradient id="c" cx="-14217.4" cy="7277.7" r="898.1" gradientTransform="matrix(-.1185 -.0178 -.036 .237 -199 -1314.4)" gradientUnits="userSpaceOnUse"><stop offset="0" stop-color="#ee352c"/><stop offset="1" stop-color="#a91d22"/></radialGradient><path fill="url(#c)" d="M804.7 294.8s-4.8 7.6-.3 18.9c2.9 7 11.1 15.4 20.4 24 0 0 96.5 94.2 108.2 107.6 53.4 61.6 76.6 122.3 78.8 206 1.3 53.8-9 101-34.3 156-45.1 98.4-140.3 207-287.1 327.6l21.4-7.1c14-10.4 32.8-21.5 77-45.8 102.2-56 217.1-107.3 358-160.2 203-76.4 536.8-165.7 726.7-194.8l19.8-3-3-4.8a668.5 668.5 0 00-43.7-61.4 521 521 0 00-154-128.1c-85-47.5-194.9-84.6-334-112.1a3739 3739 0 00-130.9-22.4c-99.3-15.4-163.5-26-234.2-38.1a2448 2448 0 01-88.4-16.3 562 562 0 01-57.5-15.4c-15.6-6-38.2-12.1-43-30.6zm56 54.2c.1-.2 3.6 1.1 8.2 2.6 8.2 2.9 18.8 6.1 31.4 9.6a1599.5 1599.5 0 0028.6 7.6c13 3.2 23.9 6.3 24 6.3 1.6 1.5 23.5 71.5 30.9 98.4 2.8 10.2 5 18.9 4.8 18.9-.3.2-2.6-3.5-5.5-8.5a451.4 451.4 0 00-111.9-126.4c-6-4.3-10.6-8.2-10.6-8.5zm106.6 29.5c1 0 5.9.7 11.7 2a3493 3493 0 00145.3 28c7.2 1 12.8 2.3 12.8 2.8 0 .4-2.6 2-5.9 3.7-7.1 3.7-36 20.8-45.5 27.3-24 16-45.7 33.4-61.4 49l-11.7 11.5s-1.3-3.7-2.4-8.2c-7.8-30.2-24-74.9-38.8-106.3a93 93 0 01-4.3-10c0 .5 0 .2.2.2zm187.8 35.8c1.3.4 3.5 7.8 7.8 24a355 355 0 019.1 118l-.6 2.2-11.3-3.7c-23.2-7.3-61-18.4-93.3-27.5-18.4-5-33.4-9.5-33.4-10 0-1.3 27-28.2 38.4-38.4 22-19.3 81.3-65.2 83.3-64.6zm15 2.2c.6-.7 89.7 14.7 130.3 22.5 30.1 5.9 74 15 76.5 16 1.3.5-3.2 3.1-17.7 9.6a941.3 941.3 0 00-142 77.2c-11.1 7.4-20.5 13.5-20.7 13.5-.2 0-.4-6.3-.4-14 0-41.1-8.3-82.7-23.4-117.9a32.8 32.8 0 01-2.6-7zm230.5 45.5c.6.7-2.2 18.2-4.8 28.6C1388 523 1367 571 1341.2 616a143 143 0 01-9.2 14.7c-.4.3-6.2-3-13-6.9a706.1 706.1 0 00-85-41.6c-8.6-3.7-16.2-6.8-16.4-7.2-1.6-1.3 68.3-47.5 105.1-69.6 29.3-17.8 77-44.2 77.9-43.4zm16.5 2.6c2 0 41.4 10.9 62 17 51 15.1 109.5 36.6 147.7 54l15.8 7.1-11 2.6a1616.5 1616.5 0 00-262.5 82.2c-.4 0 1.8-5 4.6-11 23.2-49.3 38.2-100.7 41.8-144.5.3-4.1 1-7.4 1.6-7.4zm-393 90.2c.7-.6 30.8 6.5 47 11 24.8 7 77.3 24.6 77.3 25.9 0 .2-5.9 5.2-12.8 11.3a1565.4 1565.4 0 00-88.5 80.2 312 312 0 01-18.4 17c-.5 0-.7-1.4-.5-3.1 5-36.4 4-83.3-3-130.8-.6-6-1.3-11.2-1-11.5zm633.5.7c.4.4-14 23-23 35.8a2161 2161 0 01-75.3 97.6 14432 14432 0 00-56.8 71.7c-8.7 10.9-15.8 20-16 20-.3 0-3-4-6.1-8.7a448.1 448.1 0 00-87.8-97 506.4 506.4 0 00-16-13 24.2 24.2 0 01-4.4-3.6c0-.7 36.8-16.5 64.8-27.8 49-20 115.8-43.8 165.9-59.2a814.7 814.7 0 0154.7-15.8zm16.6 4.3c1-.2 6.1 2.4 12.4 6a735.5 735.5 0 01184.6 150l-21.7 1.7c-91.3 7-208.2 26.2-320.5 53.3-7.6 1.8-14.4 3.3-14.8 3.3-.4 0 8-8.5 18.7-18.7 65.9-63.5 96-103.6 131.6-175.2a748 748 0 019.7-20.4c-.2 0-.2 0 0 0zm-482.9 49.5c3 .6 31.2 13.9 52.5 24.5 19.5 9.7 48.8 25.3 50.3 26.6.2.3-10.2 5.7-23 12a1511.7 1511.7 0 00-112.1 61.8c-10.4 6.3-19 11.5-19.3 11.5-.9 0-.6-.9 5.2-11.5 19.5-35.6 35.1-78 44-119.5.9-3.3 1.8-5.4 2.4-5.4zm-28.2 5.2c.7.6-6.7 27.3-11.3 41.8a534 534 0 01-38.3 88l-11.5 20-5.5 8.7-12.1-11.7a159.3 159.3 0 00-40.3-29.7c-5.9-3-10.4-5.7-10.4-6.1 0-1.7 37-35.3 65.5-59.6 20.3-17.6 63.3-52 64-51.4zm172.4 70.9l10.7 7c24.2 15.8 52.9 36.8 74.8 55.2a732 732 0 0141 36.9l2.5 2.8-17.5 5a3185 3185 0 00-265.7 85c-10 3.7-18.4 6.7-19 6.7-1.3 0-2.4 1.1 20-19.5a952 952 0 00145.6-167.4l7.6-11.7zm-45.3 11.3c.4.4-29.3 42.2-47 65.9-21.3 28.2-59 75.4-85 106.2a661.8 661.8 0 01-20.7 23.7c-.6.2-.8-3-.8-8 0-26.3-6.8-54.3-18.5-78.1-5-10-5.8-12.4-4.7-13.5 4-3.6 67.2-39.6 107-61.1 27-14.3 69-35.6 69.7-35.1zm-274.1 67.2a238.2 238.2 0 0148.6 30.8c.4.4-5.2 5-12.6 10.4a2025.7 2025.7 0 00-70 52.9c-19.1 15.2-19.8 15.6-17.6 12.4a399.7 399.7 0 0029-50.1c6.8-14.1 13.5-30.8 18.3-45.4 1.7-6.2 3.9-11 4.3-11zm73 57.2c1.2-.2 2.5 1.8 8.3 10.4a156.4 156.4 0 0124.3 63.1l.4 4.4-29.7 11.5c-53.1 20.6-102.1 41-135.3 56.1a2429.6 2429.6 0 00-55.5 26.7c0-.2 6.7-5.2 15-11.3 64.8-47 121-98.6 163-150.2 4.6-5.5 8.7-10.4 9.1-10.7h.5zm-33.5 8.3A719.3 719.3 0 01880.2 984l-13 8.2c-1.6.9.3-1.3 22.9-25.8a590.7 590.7 0 0037.5-44.4 73.3 73.3 0 0121.7-20.6c31.9-23 105.4-72.9 106.3-72z"/></g><path fill="#231F1F" d="M265.7 900.1l-6.8.2c-46 2.5-77 22.7-95 62.2-15.6 35.7-13.9 82.5.1 118.4 16.3 35.1 42.5 53.7 86.4 60.7 9.3 1.5 15.5 6.6 33.5 27.6l22.1 26h40.1l-26.6-27a284.9 284.9 0 01-26.7-28.7c0-1.1 5.6-3.6 12.5-5.7 22.5-6.8 41.2-24.2 54.2-50.8 10.6-21.4 12.1-28 13.7-54.7 4-79.2-37.9-128.8-107.5-128.2zm35.2 207.3a94.4 94.4 0 01-66.3 4.5c-19.2-7-37.7-26.9-46-49.4-9.3-24.5-8-70 2.6-90.3 17-32.6 39.6-47.5 72.5-47.5 48.8 0 76.5 29.9 80.1 86 2.9 47-12.8 82-42.9 96.7zm693-139.6a43 43 0 00-38.3 20.2l-6.8 10.7V971h-29.2v165.7h29.1v-53c0-48.4.6-54 7.4-67.3 9.3-18.2 25.4-27.2 40.9-22.9l10.4 3v-28.7h-13.5zm-171-1.5c-5.8 0-11.8.7-17.8 2-39 10.3-61 47.6-59.6 86 0 32 6.2 48.1 21.7 65 31.8 26 60.5 28.1 99.3 14.2l13.8-6.1v-26l-13.8 7c-31.4 13.7-55 13.7-74-2.4a74.6 74.6 0 01-19.8-43.8h117.4v-22.4c0-45.5-27.4-74.3-67.3-73.5zm-47.5 72.6s4.3-28.4 20.4-39.5a44 44 0 0125.3-8.1c8.7 0 17.4 2.8 24.6 8.3 14.8 11.3 17.2 39.1 17.2 39.1h-87.5v.2zm-702.2-29.8c-31.5-19.2-45.5-33-43.8-49.2 4.9-45 60.5-38.8 91.3-21.8l.2-30.3s-17-7.3-41.4-7.7c-37.5-.6-61.7 11.7-73 36.7-16.7 36.8-2 64.6 51.4 95.6 30 17.5 43.1 32.6 43.1 49 0 34.1-41 46-83.4 24.6-8.7-4.3-16-8-16.4-8-1.6 9.7-.8 32.8-.8 32.8s13 5.5 32.6 9.2c48.4 9.7 92.4-13 96.6-49.9 3.6-34.6-9-52.7-56.4-81zm1178.5-43.2c-5.7 0-11.7.8-18 2.1-39 10.2-60.9 47.5-59.4 85.9 0 32 6.3 48 21.8 64.8 31.7 26.1 60.5 28.2 99.4 14.2l13.8-6v-26.1l-13.8 7.2c-31.4 13.6-55 13.6-74-2.5a73.7 73.7 0 01-19.8-43.9H1319v-22.3c0-45.3-27.4-74.1-67.3-73.4h.1zm-47.5 72.6s4.4-28.3 20.5-39.7a43.7 43.7 0 0125.3-8.1c8.6 0 17.4 2.8 24.6 8.3 14.7 11.4 17.2 39.3 17.2 39.3h-87.6v.2zm-533.8-29c-31.6-19.2-45.5-33-43.9-49.3 5-45 60.6-38.7 91.3-21.7l.3-30.3s-17-7.4-41.5-7.7c-37.4-.6-61.6 11.7-73 36.7-16.6 36.8-1.6 64.6 51.5 95.7 29.9 17.4 43.1 32.3 43.1 48.8 0 34-41 46-83.4 24.5-8.7-4.3-16-7.9-16.5-7.9-1.5 9.7-.7 32.8-.7 32.8s12.9 5.2 32.3 9.2c48.5 9.7 92.5-13 96.7-49.9 3.6-34.4-9-52.6-56.2-81zm752.4-42a42.8 42.8 0 00-38.4 20.2l-6.8 10.6v-27.6h-29.1v165.6h29.1v-53c0-48.4.6-54 7.4-67.3 9.3-18.1 25.3-27.2 40.9-22.8l10.4 3v-28.8h-13.5zm-984 41V902.9h-29.4v233.8H533V1109h-94.1v-100.6zm679 32.9l-24.2 63-23.3-63.4-23.6-70.2h-30a5139 5139 0 0062 165.9c9.2.2 18.5 0 27.8 0l32.7-82 33.2-83.8h-28.7s-12.7 33.2-26 70.5h.1zM506.5 839.3a16 16 0 0011.9-4.8c3.2-3.2 4.9-7 4.9-11.7 0-4.8-1.7-8.7-5-11.7-3.2-3-7-4.6-11.6-4.6a16 16 0 00-16.7 16.4 16 16 0 0016.4 16.3zm-10.5-27c2.9-2.8 6.3-4 10.7-4a14.2 14.2 0 0114.7 14.5 14.6 14.6 0 01-14.7 14.7c-4.2 0-7.6-1.3-10.4-4.1a14.6 14.6 0 01-4.4-10.6 14 14 0 014.1-10.4zm7 12h2c1.3 0 2.6 1.3 3.8 3.8l2.2 5h3.6l-2.8-5.6c-1.2-2.3-2.3-3.6-3.6-4 1.7-.4 3-1 4-2 .9-1 1.2-2.4 1.2-3.9 0-1.7-.5-3-1.7-4-1.3-1-3.3-1.6-6-1.6h-6v21.2h3v-9h.3zm0-9.9h2.7c1.9 0 3.2.4 4 1 .7.6.9 1.3.9 2.6 0 2.5-1.5 3.6-4.3 3.6H503v-7.2zm-485 8c0-7.4-.2-12.9-.4-16h.2c.8 3.7 1.7 6.6 2.5 8.5l28.2 63h4.7l28.2-63.6c.7-1.7 1.5-4.3 2.4-8h.2c-.5 6.3-.7 11.8-.7 16.1V878h9.6v-82.6H81l-26 57.5c-1 2.2-2.3 5.7-4 10.2h-.3c-.6-2.3-2-5.7-3.8-9.8l-25.3-58H8.6v82.5h9.3v-55.4h.1zm96 .2h8.4V874h-8.3v-51.4zm4.2-19c1.8 0 3.3-.5 4.4-1.6a6 6 0 001.9-4.4c0-1.7-.6-3.2-1.9-4.3a6 6 0 00-4.4-1.8 6 6 0 00-4.3 1.8 6.1 6.1 0 00-2 4.3c0 1.9.7 3.2 2 4.4a6.2 6.2 0 004.3 1.7zm63.6 71.5v-9a24 24 0 01-14.5 5c-6.1 0-11-2-14.6-6-3.6-4-5.5-9.4-5.5-16.3 0-7.1 1.9-12.8 5.8-17.1a19 19 0 0114.8-6.3c4.9 0 9.6 1.5 14 4.6v-9.7c-4-2-8.5-3-13.6-3-9.5 0-16.9 3-22.4 8.9a33.2 33.2 0 00-8.3 23.4 30 30 0 007.6 21.2 26.8 26.8 0 0020.4 8.5c6.5-.2 11.7-1.5 16.3-4.2zm23.8-27.4c0-6.8 1.5-12.3 4.3-16 2.7-3.4 5.9-5.2 9.7-5.2 3.2 0 5.5.6 7.2 2v-9.9a15 15 0 00-5.7-.8c-3.4 0-6.4 1.2-9 3.3a20 20 0 00-6.5 10h-.2V819H196v59h9.4v-30.3h.2zm54.3 31.5a28 28 0 0021.4-8.6c5.2-5.6 7.9-13.2 7.9-22.7 0-9.6-2.4-17-7.4-22.5-4.9-5.5-11.7-8.1-20.6-8.1s-16 2.6-21.3 7.7a32.2 32.2 0 00-8.7 23.9c0 8.8 2.4 16.2 7.5 21.7a27.5 27.5 0 0021.2 8.5zM246.4 831c3.6-3.8 8.4-5.7 14.2-5.7 6.1 0 10.7 1.9 14 5.7 3.4 4 5.1 9.6 5.1 17.2 0 7.2-1.5 12.9-4.7 16.6-3.2 4-8 6.1-14.2 6.1-6 0-10.8-2-14.4-6-3.5-4-5.2-9.5-5.2-16.7-.4-7.2 1.5-13 5.2-17.2zm84.2 43c3.6-3.3 5.5-7.2 5.5-12.2 0-4.3-1.5-8-4.3-10.8a33.5 33.5 0 00-11-6.4c-4.6-1.9-7.4-3.6-9-5a8 8 0 01-2.4-6c0-2.4 1-4.3 2.8-5.8 2-1.5 4.4-2.3 7.6-2.3 5.1 0 9.5 1.4 13.5 4.2v-9.5c-3.8-1.9-8-2.8-12.7-2.8-6 0-11.2 1.7-15 5-4 3.1-5.8 7.3-5.8 12.2 0 4.3 1.3 8 3.7 10.6 2.1 2.2 5.7 4.5 10.6 6.6 4.8 2 8 4 9.7 5.5a7.2 7.2 0 012.4 5.6c0 5.5-3.7 8.4-11.1 8.4-5.7 0-10.8-1.9-15.4-5.7V876c4.2 2.5 9.1 3.6 14.6 3.6 7-.3 12.5-2 16.2-5.5zm45-56.8c-8.9 0-16 2.6-21.4 7.7a32.3 32.3 0 00-8.6 23.9c0 8.9 2.4 16.2 7.5 21.7a27.5 27.5 0 0021.2 8.5c9.1 0 16-2.8 21.4-8.5 5.3-5.6 8-13.2 8-22.7 0-9.6-2.5-17-7.5-22.5s-11.9-8.1-20.6-8.1zm18.4 31c0 7.2-1.6 12.9-4.8 16.6-3.2 4-8 6.1-14.2 6.1-6 0-10.7-2-14.3-6-3.6-4-5.3-9.5-5.3-16.7 0-7.6 1.9-13.4 5.7-17.4 3.5-3.8 8.3-5.7 14.1-5.7a18 18 0 0114 5.7c3 4.2 4.7 9.8 4.7 17.4zm25.5 29.5h9.4v-51h13.8v-8H429v-9.1c0-8.3 3.2-12.5 9.9-12.5 2.2 0 4.5.6 6.2 1.6v-8.6c-1.7-.7-4-.9-6.8-.9-5.1 0-9.3 1.5-12.7 4.7-4 3.8-6 8.7-6 15.4v9.6h-10v8h10v50.8zm38.7-16c0 11.5 5.1 17.3 15.6 17.3a17 17 0 008.8-2v-8a9.9 9.9 0 01-6 1.9c-3.2 0-5.5-.8-6.8-2.5-1.4-1.7-2.1-4.5-2.1-8.5v-33.3h15v-8h-15v-17.3l-9.5 3v14.4H448v8h10.2v34.9zm1015 108.6c-3.3-3-7-4.5-11.8-4.5a16 16 0 00-12 4.8 15.9 15.9 0 00-4.6 11.7c0 4.7 1.5 8.7 4.7 11.7s7.1 4.5 11.9 4.5c4.7 0 8.7-1.5 12-4.7a16.4 16.4 0 00-.2-23.5zm-1.6 22.4a14 14 0 01-10.4 4.1c-4.1 0-7.5-1.3-10.4-4.1a14.7 14.7 0 01-4.3-10.6 14 14 0 0114.7-14.5 14.3 14.3 0 0114.7 14.5c0 4.3-1.3 7.7-4.3 10.6zm-8.5-9.7c1.7-.4 3-1.1 4-2 1-1 1.3-2.3 1.3-3.9 0-1.7-.6-3-1.7-4-1.3-1-3.4-1.6-6-1.6h-6.1v21.2h3v-9h2c1.2 0 2.5 1.4 3.7 3.8l2.2 5.1h3.6l-2.8-5.6c-1-2.5-2-3.6-3.2-4zm-2-1.9h-3.3v-7.1h2.6c2 0 3.3.3 4 .9.8.6 1 1.3 1 2.7 0 2.4-1.6 3.5-4.4 3.5zM933.3 816.4h2.7v-21.2h7v-2.7h-16.7v2.7h7v21.2zm16-16v-4.7c.1 1.2.5 2 .7 2.5l8.1 18.2h1.3l8.2-18.4.7-2.3c-.2 2-.2 3.4-.2 4.6v16h2.9v-23.8h-3.4l-7.4 16.5c-.2.5-.8 1.7-1.1 3h-.3c-.1-.8-.5-1.5-1-2.8l-7.4-16.7h-3.8v23.9h2.6v-16h.2z"/></svg>